inDegrees=yes
name=IK-live
DataType=double
version=3
OpenSimVersion=4.1
endheader
time	pelvis_tilt	pelvis_list	pelvis_rotation	pelvis_tx	pelvis_ty	pelvis_tz	hip_flexion_r	hip_adduction_r	hip_rotation_r	knee_angle_r	ankle_angle_r	subtalar_angle_r	mtp_angle_r	hip_flexion_l	hip_adduction_l	hip_rotation_l	knee_angle_l	ankle_angle_l	subtalar_angle_l	mtp_angle_l	lumbar_extension	lumbar_bending	lumbar_rotation	neck_flex	neck_latbend	neck_rot	arm_flex_r	arm_add_r	arm_rot_r	elbow_flex_r	pro_sup_r	wrist_flex_r	wrist_dev_r	arm_flex_l	arm_add_l	arm_rot_l	elbow_flex_l	pro_sup_l	wrist_flex_l	wrist_dev_l
61.130756	274.6680733241463	851.1435647337005	-557.931049264749	0.2341366603171506	0.04326292228651554	-1.326684523481465	-22.57117169827992	-1.591976316804377	-3.241458145969817	5.899560354604904	2.451982624139334	1.987972377786656	0	-24.74788768789517	-3.395140484746916	-11.58000132048591	9.793848132074926	-0.4439473045988533	4.250290820099795	0	-21.37711699760957	1.659277491615732	3.206407148933037	0	0	0	49.73852227654854	-15.02769140672788	2.824841086633201	73.16683657842634	44.99287805740899	0	4.999999260221929	51.69433288408462	-14.72230080913007	3.587900237802583	73.16536312555398	44.99574238176574	0	4.999999260221929
61.297606	275.3048086526445	849.1469452632354	-553.6320661487866	0.2341366603171506	0.04326292228651554	-1.326684523481465	-22.57117169827992	-1.591976316804377	-3.241458145969817	5.899560354604904	2.451982624139334	1.987972377786656	0	-24.74788768789517	-3.395140484746916	-11.58000132048591	9.793848132074926	-0.4439473045988533	4.250290820099795	0	-21.37711699760957	1.659277491615732	3.206407148933037	0	0	0	49.78527024588575	-15.02761972263012	2.815680260966776	73.17453401994527	44.99293725093028	0	4.999999272293629	51.73867738832927	-14.72301968462282	3.576261753242542	73.17306675642754	44.99577776951141	0	4.999999272293629
61.4645518	278.082423425807	847.7319925717219	-547.9242586724693	0.2341366603171506	0.04326292228651554	-1.326684523481465	-22.57117169827992	-1.591976316804377	-3.241458145969817	5.899560354604904	2.451982624139334	1.987972377786656	0	-24.74788768789517	-3.395140484746916	-11.58000132048591	9.793848132074926	-0.4439473045988533	4.250290820099795	0	-21.37711699760957	1.659277491615732	3.206407148933037	0	0	0	49.85829654956756	-15.02749081765111	2.798280080524751	73.19022419083514	44.99308963205672	0	4.9999993108245	51.80786629302751	-14.72431239593864	3.554150594889267	73.18876954953488	44.99586886773274	0	4.9999993108245
61.6309167	276.7719330271017	849.7567766943174	-550.6254884689835	0.2341366603171506	0.04326292228651554	-1.326684523481465	-22.57117169827992	-1.591976316804377	-3.241458145969817	5.899560354604904	2.451982624139334	1.987972377786656	0	-24.74788768789517	-3.395140484746916	-11.58000132048591	9.793848132074926	-0.4439473045988533	4.250290820099795	0	-21.37711699760957	1.659277491615732	3.206407148933037	0	0	0	49.90489671789604	-15.02741965281345	2.789205464580454	73.1978233917901	44.99314706715334	0	4.99999932219991	51.85207191911021	-14.72502606403385	3.542621738952719	73.19637486071507	44.99590320423694	0	4.99999932219991
61.7958157	284.3734929013788	846.6327058287235	-540.7782598185473	0.2341366603171506	0.04326292228651554	-1.326684523481465	-22.57117169827992	-1.591976316804377	-3.241458145969817	5.899560354604904	2.451982624139334	1.987972377786656	0	-24.74788768789517	-3.395140484746916	-11.58000132048591	9.793848132074926	-0.4439473045988533	4.250290820099795	0	-21.37711699760957	1.659277491615732	3.206407148933037	0	0	0	49.97526205502221	-15.02729581343189	2.772519159466404	73.21282629061588	44.99329050036016	0	4.999999357477638	51.91874158944398	-14.72626797536383	3.521417976899967	73.21138982849283	44.99598895311108	0	4.999999357477638
61.9477395	284.9744209514393	842.715690434521	-533.395191276594	0.2341366603171506	0.04326292228651554	-1.326684523481465	-22.57117169827992	-1.591976316804377	-3.241458145969817	5.899560354604904	2.451982624139334	1.987972377786656	0	-24.74788768789517	-3.395140484746916	-11.58000132048591	9.793848132074926	-0.4439473045988533	4.250290820099795	0	-21.37711699760957	1.659277491615732	3.206407148933037	0	0	0	50.05981188434362	-15.02714830257884	2.752717513940578	73.23053793351217	44.99345615281821	0	4.999999396932761	51.99885693663354	-14.72774727351891	3.496255898405645	73.22911571877668	44.99608798535127	0	4.999999396932761
62.1136062	285.6252395765464	839.462053824233	-522.4826845141287	0.2341366603171506	0.04326292228651554	-1.326684523481465	-22.57117169827992	-1.591976316804377	-3.241458145969817	5.899560354604904	2.451982624139334	1.987972377786656	0	-24.74788768789517	-3.395140484746916	-11.58000132048591	9.793848132074926	-0.4439473045988533	4.250290820099795	0	-21.37711699760957	1.659277491615732	3.206407148933037	0	0	0	50.14172556255684	-15.02700588001783	2.73363422243347	73.24755801510481	44.99361295808832	0	4.999999433305911	52.0764767528296	-14.72917554410396	3.472006886999543	73.24614949108542	44.99618172846484	0	4.999999433305911
62.2805217	249.9534508759283	844.6538823291919	-448.8259600870998	0.2341366603171506	0.04326292228651554	-1.326684523481465	-22.57117169827992	-1.591976316804377	-3.241458145969817	5.899560354604904	2.451982624139334	1.987972377786656	0	-24.74788768789517	-3.395140484746916	-11.58000132048591	9.793848132074926	-0.4439473045988533	4.250290820099795	0	-21.37711699760957	1.659277491615732	3.206407148933037	0	0	0	50.96361973457428	-15.02550137301739	2.529745952287144	73.4307507694942	44.99523058518597	0	4.999999754996193	52.85491764966553	-14.7442633487961	3.212925334882351	73.42948959638845	44.99714879673499	0	4.999999754996193
62.4449682	255.3649207742432	849.6993257767597	-444.0825418712777	0.2341366603171506	0.04326292228651554	-1.326684523481465	-22.57117169827992	-1.591976316804377	-3.241458145969817	5.899560354604904	2.451982624139334	1.987972377786656	0	-24.74788768789517	-3.395140484746916	-11.58000132048591	9.793848132074926	-0.4439473045988533	4.250290820099795	0	-21.37711699760957	1.659277491615732	3.206407148933037	0	0	0	51.03805544396007	-15.02537613333916	2.513301238763979	73.44493580508887	44.99533870256433	0	4.999999772867453	52.9254698810894	-14.74551930136971	3.19203138103479	73.44368603897107	44.99721343269874	0	4.999999772867453
62.5958506	259.937826595992	849.4647430005691	-439.6268221111931	0.2341366603171506	0.04326292228651554	-1.326684523481465	-22.57117169827992	-1.591976316804377	-3.241458145969817	5.899560354604904	2.451982624139334	1.987972377786656	0	-24.74788768789517	-3.395140484746916	-11.58000132048591	9.793848132074926	-0.4439473045988533	4.250290820099795	0	-21.37711699760957	1.659277491615732	3.206407148933037	0	0	0	51.0832040910735	-15.02531044273364	2.505151458438029	73.45146518890931	44.9953774453408	0	4.999999777885157	52.96831204796977	-14.74617807116442	3.181678531919908	73.45022067148778	44.99723659434714	0	4.999999777885157
62.763739	257.1263386666928	849.1200237793159	-447.668113462558	0.2341366603171506	0.04326292228651554	-1.326684523481465	-22.57117169827992	-1.591976316804377	-3.241458145969817	5.899560354604904	2.451982624139334	1.987972377786656	0	-24.74788768789517	-3.395140484746916	-11.58000132048591	9.793848132074926	-0.4439473045988533	4.250290820099795	0	-21.37711699760957	1.659277491615732	3.206407148933037	0	0	0	51.15578078362672	-15.0251889080629	2.489232169121765	73.46514612499374	44.99547982188329	0	4.999999794301554	53.03710509056194	-14.74739686833806	3.161452390434103	73.46391260888502	44.99729779825896	0	4.999999794301554
62.9306326	253.2977216343013	849.4420200248128	-462.0152198317658	0.2341366603171506	0.04326292228651554	-1.326684523481465	-22.57117169827992	-1.591976316804377	-3.241458145969817	5.899560354604904	2.451982624139334	1.987972377786656	0	-24.74788768789517	-3.395140484746916	-11.58000132048591	9.793848132074926	-0.4439473045988533	4.250290820099795	0	-21.37711699760957	1.659277491615732	3.206407148933037	0	0	0	51.23048061332231	-15.02506429892	2.472942077983215	73.4791040187294	44.99558270766303	0	4.999999810378613	53.10791282187463	-14.74864649741795	3.140755306092172	73.47788172641494	44.99735930660883	0	4.999999810378613
63.097548	275.2096670274088	855.6415522104858	-521.9540543776494	0.2341366603171506	0.04326292228651554	-1.326684523481465	-22.57117169827992	-1.591976316804377	-3.241458145969817	5.899560354604904	2.451982624139334	1.987972377786656	0	-24.74788768789517	-3.395140484746916	-11.58000132048591	9.793848132074926	-0.4439473045988533	4.250290820099795	0	-21.37711699760957	1.659277491615732	3.206407148933037	0	0	0	51.88762207682311	-15.02390802561117	2.319715911431172	73.61194124574493	44.99654719103205	0	4.999999945281679	53.73052831557443	-14.76024206159187	2.946072655858956	73.61082577019219	44.99793590505358	0	4.999999945281679
63.263952	269.0438367494682	859.9043193070167	-538.0743613915637	0.2341366603171506	0.04326292228651554	-1.326684523481465	-22.57117169827992	-1.591976316804377	-3.241458145969817	5.899560354604904	2.451982624139334	1.987972377786656	0	-24.74788768789517	-3.395140484746916	-11.58000132048591	9.793848132074926	-0.4439473045988533	4.250290820099795	0	-21.37711699760957	1.659277491615732	3.206407148933037	0	0	0	51.96388934306933	-15.02378464588744	2.303876094646728	73.62511715419592	44.99662928387168	0	4.999999954685657	53.8028384445667	-14.76147936068684	2.925949230989842	73.6240122715937	44.99798498273108	0	4.999999954685657
